<svg width="24" height="24" viewBox="0 0 24 24" fill="none" xmlns="http://www.w3.org/2000/svg">
<g clip-path="url(#clip0_229_17886)">
<path d="M3.23012 13.13C3.56291 13.2021 3.86156 13.3846 4.07758 13.6478C4.2936 13.9111 4.41431 14.2396 4.42012 14.58C4.42552 14.9639 4.27954 15.3344 4.01377 15.6114C3.74801 15.8884 3.38385 16.0496 3.00012 16.06H2.94012C2.60768 16.0683 2.28263 15.9613 2.02014 15.7572C1.75765 15.553 1.57391 15.2643 1.50012 14.94L2.61012 15.36H2.71012H2.90012C3.11559 15.3549 3.32036 15.265 3.47012 15.11L3.54012 15.04V14.96C3.60265 14.8446 3.64029 14.7173 3.65062 14.5864C3.66096 14.4555 3.64375 14.3239 3.60012 14.2L3.19012 13.09M2.90012 12.49C2.72859 12.4819 2.55679 12.4987 2.39012 12.54L3.07012 14.41C3.10904 14.5063 3.10904 14.6138 3.07012 14.71C3.0224 14.7526 2.96334 14.7804 2.90012 14.79H2.81012L0.940118 14.11C0.920351 14.2661 0.920351 14.424 0.940118 14.58C0.940118 15.1105 1.15083 15.6192 1.5259 15.9943C1.90098 16.3693 2.40968 16.58 2.94012 16.58H3.00012C3.53055 16.58 4.03926 16.3693 4.41433 15.9943C4.7894 15.6192 5.00012 15.1105 5.00012 14.58C4.99237 14.0388 4.7739 13.5218 4.39111 13.139C4.00833 12.7563 3.4914 12.5378 2.95012 12.53L2.90012 12.49Z" fill="white"/>
<path d="M3.73992 0.57V1.57H2.73992V0.57H3.73992ZM4.30992 0H2.16992V2.13H4.30992V0Z" fill="white"/>
<path d="M0.55 20.2499C0.404934 20.2525 0.266526 20.3112 0.163932 20.4138C0.0613389 20.5164 0.00256815 20.6548 0 20.7999C0.00247318 20.9459 0.0609104 21.0854 0.163253 21.1896C0.265595 21.2938 0.404033 21.3548 0.55 21.3599C0.697719 21.3573 0.838669 21.2975 0.943137 21.193C1.04761 21.0886 1.10743 20.9476 1.11 20.7999C1.11141 20.7264 1.09781 20.6534 1.07004 20.5854C1.04227 20.5174 1.00091 20.4557 0.948482 20.4042C0.896058 20.3528 0.833678 20.3125 0.76516 20.286C0.696642 20.2594 0.623428 20.2472 0.55 20.2499Z" fill="white"/>
<path d="M6.44007 1.07007H4.82007V2.14007H6.44007V1.07007Z" fill="white"/>
<path d="M1.78993 12.3201C1.32233 12.5776 0.937417 12.9625 0.679932 13.4301L2.42993 14.1101L1.78993 12.3201Z" fill="white"/>
<path d="M6.38011 3.20989V4.75989H1.68011V3.20989H6.38011ZM7.00011 2.63989H1.11011V5.32989H7.00011V2.63989Z" fill="white"/>
<path d="M13.6399 7.99993C13.9312 8.00278 14.2133 8.10265 14.4415 8.28376C14.6697 8.46487 14.831 8.71687 14.8999 8.99993H8.69993C8.40952 8.99371 8.12914 8.89259 7.90161 8.71201C7.67409 8.53144 7.51194 8.28134 7.43993 7.99993H13.6399ZM13.6399 7.42993H6.81993V7.63993C6.81729 7.88897 6.8639 8.13607 6.95707 8.36704C7.05025 8.598 7.18815 8.80828 7.36286 8.98577C7.53756 9.16326 7.74563 9.30448 7.97509 9.4013C8.20455 9.49812 8.45088 9.54863 8.69993 9.54993H15.5199V9.28993C15.5044 8.80087 15.2998 8.33689 14.9492 7.99559C14.5986 7.65429 14.1292 7.46227 13.6399 7.45993V7.42993Z" fill="white"/>
<path d="M21.2601 3.44994C21.4417 3.56379 21.5918 3.72143 21.6966 3.90838C21.8014 4.09533 21.8576 4.30562 21.8601 4.51994C21.8549 4.86577 21.7152 5.19598 21.4707 5.44054C21.2261 5.6851 20.8959 5.82478 20.5501 5.82994C20.3542 5.82269 20.1625 5.77126 19.9894 5.67948C19.8162 5.5877 19.666 5.45795 19.5501 5.29994H19.7801H19.8701H19.9501V5.08994H20.2101V4.74994L20.2901 4.66994C20.3512 4.63281 20.4082 4.58923 20.4601 4.53994C20.5482 4.50077 20.6267 4.44274 20.6901 4.36994L20.7801 4.27994C20.8685 4.19955 20.9429 4.10491 21.0001 3.99994L21.1201 3.83994V3.76994C21.144 3.73205 21.1641 3.69185 21.1801 3.64994C21.184 3.61004 21.184 3.56984 21.1801 3.52994M20.7201 2.76994V2.93994C20.7283 2.95887 20.7326 2.97929 20.7326 2.99994C20.7326 3.02059 20.7283 3.04102 20.7201 3.05994V3.22994C20.7201 3.27994 20.7201 3.27994 20.7201 3.31994V3.36994C20.7201 3.36994 20.7201 3.36994 20.6701 3.36994C20.6701 3.36994 20.6701 3.36994 20.6701 3.45994C20.6701 3.54994 20.6701 3.45994 20.6701 3.53994H20.6201H20.5701C20.544 3.53216 20.5162 3.53216 20.4901 3.53994V3.99994L20.4001 4.08994C20.3709 4.09985 20.3392 4.09985 20.3101 4.08994H20.2601V4.13994C20.2601 4.13994 20.2601 4.13994 20.1701 4.13994C20.0801 4.13994 20.1701 4.13994 20.0901 4.13994V4.18994H20.0401H19.0001C18.9582 4.17375 18.9119 4.17375 18.8701 4.18994H18.7001C18.6323 4.55453 18.675 4.93107 18.8227 5.2712C18.9705 5.61132 19.2166 5.89952 19.5294 6.09877C19.8421 6.29801 20.2073 6.39922 20.578 6.38939C20.9487 6.37955 21.308 6.25913 21.6098 6.04358C21.9116 5.82804 22.142 5.52721 22.2715 5.17972C22.4011 4.83224 22.4238 4.45397 22.3367 4.09348C22.2497 3.733 22.0569 3.40677 21.7831 3.15667C21.5093 2.90658 21.1669 2.74404 20.8001 2.68994L20.7201 2.76994Z" fill="white"/>
<path d="M18.42 1.08001C18.7675 1.08001 19.1007 1.21803 19.3463 1.4637C19.592 1.70937 19.73 2.04258 19.73 2.39001C19.73 2.73744 19.592 3.07065 19.3463 3.31632C19.1007 3.56199 18.7675 3.70001 18.42 3.70001C18.0742 3.69485 17.744 3.55517 17.4994 3.31061C17.2549 3.06605 17.1152 2.73584 17.11 2.39001C17.1152 2.04418 17.2549 1.71397 17.4994 1.46941C17.744 1.22485 18.0742 1.08517 18.42 1.08001ZM18.42 0.51001C17.9222 0.512637 17.4456 0.711551 17.0936 1.06355C16.7416 1.41555 16.5427 1.89221 16.54 2.39001C16.5747 2.86363 16.7872 3.30661 17.135 3.62994C17.4829 3.95327 17.9402 4.13299 18.415 4.13299C18.8899 4.13299 19.3472 3.95327 19.695 3.62994C20.0429 3.30661 20.2554 2.86363 20.29 2.39001C20.2874 1.89393 20.0899 1.41876 19.7401 1.06704C19.3902 0.715321 18.9161 0.515253 18.42 0.51001Z" fill="white"/>
<path d="M14.9099 10.6301V13.0901C14.9099 13.7425 14.6507 14.3682 14.1894 14.8295C13.7281 15.2909 13.1024 15.5501 12.4499 15.5501C11.7975 15.5501 11.1718 15.2909 10.7104 14.8295C10.2491 14.3682 9.98992 13.7425 9.98992 13.0901V10.6301H14.9099ZM15.4699 10.0601H9.41992V13.0601C9.41992 13.8623 9.73863 14.6318 10.3059 15.1991C10.8732 15.7664 11.6426 16.0851 12.4449 16.0851C13.2472 16.0851 14.0166 15.7664 14.5839 15.1991C15.1512 14.6318 15.4699 13.8623 15.4699 13.0601V10.0601Z" fill="white"/>
<path d="M18.1599 15.4301H22.9299V14.3701H18.9699H18.1599V15.4301Z" fill="white"/>
<path d="M19.23 12.79V13.86H23.23H24V12.79H19.23Z" fill="white"/>
<path d="M22.6801 18.1201C22.5199 18.1201 22.3633 18.1676 22.2301 18.2566C22.0969 18.3456 21.9931 18.4721 21.9318 18.6201C21.8705 18.7682 21.8544 18.931 21.8857 19.0881C21.9169 19.2453 21.9941 19.3896 22.1074 19.5029C22.2206 19.6162 22.365 19.6933 22.5221 19.7246C22.6792 19.7558 22.8421 19.7398 22.9901 19.6785C23.1381 19.6172 23.2646 19.5133 23.3536 19.3801C23.4426 19.2469 23.4901 19.0903 23.4901 18.9301C23.4901 18.7153 23.4048 18.5093 23.2529 18.3574C23.101 18.2055 22.8949 18.1201 22.6801 18.1201Z" fill="white"/>
<path d="M18.2001 19.1501C18.4653 19.1501 18.7196 19.2554 18.9072 19.443C19.0947 19.6305 19.2001 19.8848 19.2001 20.1501V23.4201H18.2001V22.1201C18.2001 21.9026 18.1137 21.694 17.9599 21.5402C17.8061 21.3865 17.5975 21.3001 17.3801 21.3001C17.1626 21.3001 16.954 21.3865 16.8002 21.5402C16.6465 21.694 16.5601 21.9026 16.5601 22.1201V23.4301H7.00006V22.1201C7.00006 21.9026 6.91367 21.694 6.75989 21.5402C6.60611 21.3865 6.39754 21.3001 6.18006 21.3001C5.96258 21.3001 5.75401 21.3865 5.60023 21.5402C5.44645 21.694 5.36006 21.9026 5.36006 22.1201V23.4301H4.87006V20.1601C4.87006 19.8948 4.97542 19.6405 5.16295 19.453C5.35049 19.2654 5.60484 19.1601 5.87006 19.1601H7.87006L9.74006 21.5901C9.905 21.7467 10.1226 21.8359 10.3501 21.8401C10.5402 21.8524 10.7285 21.7956 10.8801 21.6801L12.2601 20.6801L13.5801 21.6801C13.7307 21.7983 13.9187 21.8587 14.1101 21.8501C14.2425 21.8602 14.3752 21.835 14.4947 21.777C14.6141 21.719 14.7161 21.6303 14.7901 21.5201L16.6401 19.1201H18.2001M18.2001 18.5601H16.4501L14.4501 21.2001C14.4501 21.2801 14.3201 21.2801 14.2401 21.2801C14.1815 21.2985 14.1186 21.2985 14.0601 21.2801L12.3601 20.0001L10.6101 21.2301C10.6101 21.2301 10.5301 21.2301 10.4401 21.2301C10.3629 21.2288 10.2885 21.2005 10.2301 21.1501L8.18006 18.5901H5.88006C5.46367 18.5901 5.06433 18.7555 4.7699 19.0499C4.47547 19.3443 4.31006 19.7437 4.31006 20.1601V24.0001H5.93006V22.1201C5.9347 22.0553 5.96253 21.9944 6.00845 21.9484C6.05436 21.9025 6.11529 21.8747 6.18006 21.8701C6.24591 21.8744 6.30811 21.9019 6.35568 21.9476C6.40325 21.9934 6.43313 22.0544 6.44006 22.1201V24.0001H17.0901V22.1201C17.0901 22.0511 17.1175 21.985 17.1662 21.9362C17.215 21.8875 17.2811 21.8601 17.3501 21.8601C17.419 21.8601 17.4851 21.8875 17.5339 21.9362C17.5827 21.985 17.6101 22.0511 17.6101 22.1201V24.0001H19.7401V20.1601C19.7454 19.955 19.7095 19.7509 19.6344 19.5599C19.5593 19.369 19.4465 19.1951 19.3028 19.0486C19.1592 18.9022 18.9875 18.7861 18.798 18.7073C18.6086 18.6285 18.4052 18.5886 18.2001 18.5901V18.5601Z" fill="white"/>
<path d="M8.61011 18.3299L10.4901 20.6799L11.8501 19.6499L9.12011 17.6899L8.61011 18.3299Z" fill="white"/>
<path d="M15.94 18.3299L15.47 17.6899L12.75 19.6499L14.11 20.6799L15.94 18.3299Z" fill="white"/>
<path d="M6.68989 10.91C6.80105 10.908 6.91029 10.9392 7.00369 10.9995C7.09709 11.0598 7.17042 11.1465 7.21434 11.2487C7.25826 11.3508 7.27079 11.4637 7.25032 11.573C7.22986 11.6823 7.17733 11.783 7.09942 11.8623C7.02152 11.9416 6.92177 11.996 6.81287 12.0184C6.70398 12.0408 6.59087 12.0303 6.48796 11.9883C6.38505 11.9462 6.297 11.8744 6.23501 11.7821C6.17302 11.6898 6.13991 11.5812 6.13989 11.47C6.13987 11.3232 6.19749 11.1823 6.30036 11.0775C6.40323 10.9728 6.54311 10.9126 6.68989 10.91Z" fill="white"/>
<path d="M1.36006 8.78012C1.47122 8.77813 1.58046 8.80928 1.67386 8.8696C1.76725 8.92991 1.84058 9.01666 1.88451 9.1188C1.92843 9.22093 1.94095 9.33383 1.92049 9.44311C1.90002 9.55239 1.84749 9.65311 1.76959 9.73243C1.69169 9.81175 1.59193 9.86608 1.48304 9.88851C1.37415 9.91094 1.26104 9.90045 1.15813 9.85838C1.05522 9.8163 0.967162 9.74455 0.905175 9.65225C0.843188 9.55996 0.810076 9.4513 0.810059 9.34012C0.810035 9.19331 0.86766 9.05237 0.970528 8.94763C1.07339 8.8429 1.21328 8.78274 1.36006 8.78012Z" fill="white"/>
<path d="M17.3499 7.16C17.4611 7.15802 17.5703 7.18916 17.6637 7.24948C17.7571 7.30979 17.8304 7.39654 17.8743 7.49868C17.9183 7.60081 17.9308 7.71371 17.9103 7.82299C17.8899 7.93227 17.8373 8.03299 17.7594 8.11231C17.6815 8.19163 17.5818 8.24597 17.4729 8.2684C17.364 8.29083 17.2509 8.28034 17.148 8.23826C17.0451 8.19619 16.957 8.12443 16.895 8.03213C16.833 7.93984 16.7999 7.83118 16.7999 7.72C16.7986 7.64694 16.8118 7.57434 16.8389 7.50645C16.8659 7.43857 16.9062 7.37675 16.9574 7.32461C17.0086 7.27248 17.0697 7.23107 17.1371 7.2028C17.2045 7.17454 17.2768 7.15999 17.3499 7.16Z" fill="white"/>
<path d="M23.2299 9.28988C23.3411 9.2879 23.4503 9.31905 23.5437 9.37936C23.6371 9.43968 23.7105 9.52643 23.7544 9.62856C23.7983 9.7307 23.8108 9.8436 23.7904 9.95288C23.7699 10.0622 23.7174 10.1629 23.6395 10.2422C23.5616 10.3215 23.4618 10.3758 23.3529 10.3983C23.244 10.4207 23.1309 10.4102 23.028 10.3681C22.9251 10.3261 22.837 10.2543 22.775 10.162C22.7131 10.0697 22.6799 9.96106 22.6799 9.84988C22.6799 9.70308 22.7375 9.56214 22.8404 9.4574C22.9433 9.35266 23.0831 9.29251 23.2299 9.28988Z" fill="white"/>
<path d="M14.1501 1.31991C14.2613 1.31793 14.3705 1.34908 14.4639 1.40939C14.5573 1.4697 14.6306 1.55646 14.6745 1.65859C14.7185 1.76073 14.731 1.87363 14.7105 1.9829C14.6901 2.09218 14.6375 2.1929 14.5596 2.27222C14.4817 2.35154 14.382 2.40588 14.2731 2.42831C14.1642 2.45074 14.0511 2.44025 13.9482 2.39817C13.8453 2.3561 13.7572 2.28434 13.6952 2.19205C13.6332 2.09975 13.6001 1.99109 13.6001 1.87991C13.6001 1.73311 13.6577 1.59217 13.7606 1.48743C13.8634 1.38269 14.0033 1.32254 14.1501 1.31991Z" fill="white"/>
<path d="M22.6801 0.260101C22.7884 0.262071 22.8938 0.295994 22.9829 0.357614C23.072 0.419234 23.141 0.505805 23.1811 0.606462C23.2212 0.707118 23.2306 0.817377 23.2083 0.923399C23.186 1.02942 23.1328 1.12648 23.0555 1.20241C22.9782 1.27833 22.8802 1.32973 22.7738 1.35015C22.6674 1.37057 22.5573 1.35911 22.4574 1.31721C22.3575 1.2753 22.2722 1.20482 22.2122 1.1146C22.1522 1.02438 22.1201 0.918451 22.1201 0.810101C22.1201 0.737024 22.1347 0.664678 22.1629 0.597289C22.1912 0.5299 22.2326 0.468818 22.2847 0.417613C22.3369 0.366408 22.3987 0.326106 22.4666 0.299062C22.5345 0.272017 22.6071 0.258772 22.6801 0.260101Z" fill="white"/>
<path d="M8.82007 3.70995H14.7101C14.7827 3.71273 14.8536 3.68715 14.9077 3.63864C14.9618 3.59012 14.9949 3.52245 15.0001 3.44995C14.9935 3.38589 14.9651 3.32604 14.9195 3.2805C14.874 3.23496 14.8141 3.20652 14.7501 3.19995H8.82007C8.756 3.20652 8.69616 3.23496 8.65062 3.2805C8.60508 3.32604 8.57663 3.38589 8.57007 3.44995C8.57442 3.5158 8.60189 3.578 8.64763 3.62557C8.69337 3.67314 8.75444 3.70302 8.82007 3.70995Z" fill="white"/>
<path d="M20.8499 8.13992L19.7799 10.8299C19.7553 10.8926 19.755 10.9622 19.779 11.0251C19.8031 11.088 19.8498 11.1397 19.9099 11.1699H19.9999C20.0558 11.1733 20.1113 11.1586 20.1581 11.128C20.205 11.0974 20.2407 11.0525 20.2599 10.9999L21.3199 8.30992C21.3385 8.25122 21.3356 8.18785 21.3118 8.13109C21.288 8.07432 21.2448 8.02784 21.1899 7.99992C21.1258 7.98036 21.0569 7.98362 20.9949 8.00915C20.9329 8.03467 20.8817 8.08088 20.8499 8.13992Z" fill="white"/>
<path d="M2.8599 6.99989C2.82571 7.01 2.79397 7.02702 2.76664 7.04991C2.73931 7.0728 2.71698 7.10107 2.70103 7.13296C2.68509 7.16485 2.67587 7.19967 2.67396 7.23527C2.67204 7.27087 2.67747 7.30648 2.6899 7.33989L3.8399 10.9999C3.85196 11.0548 3.88458 11.103 3.93108 11.1346C3.97757 11.1663 4.0344 11.1789 4.0899 11.1699H4.1799C4.24734 11.1471 4.30304 11.0986 4.33487 11.0349C4.36671 10.9712 4.37211 10.8975 4.3499 10.8299L3.1999 7.11989C3.16974 7.05982 3.11747 7.01376 3.05408 6.99139C2.99069 6.96901 2.92109 6.97206 2.8599 6.99989Z" fill="white"/>
<path d="M10.4399 2.13012H12.5799C12.644 2.12355 12.7038 2.0951 12.7494 2.04957C12.7949 2.00403 12.8234 1.94418 12.8299 1.88012C12.8256 1.81427 12.7981 1.75207 12.7524 1.7045C12.7066 1.65693 12.6455 1.62704 12.5799 1.62012H10.4399C10.3743 1.62704 10.3132 1.65693 10.2675 1.7045C10.2217 1.75207 10.1943 1.81427 10.1899 1.88012C10.1885 1.91333 10.194 1.94647 10.2061 1.97744C10.2181 2.00841 10.2365 2.03654 10.26 2.06004C10.2835 2.08354 10.3116 2.10191 10.3426 2.11397C10.3736 2.12603 10.4067 2.13153 10.4399 2.13012Z" fill="white"/>
</g>
<defs>
<clipPath id="clip0_229_17886">
<rect width="24" height="24" fill="white"/>
</clipPath>
</defs>
</svg>
