<svg width="302" height="60" viewBox="0 0 302 60" fill="none" xmlns="http://www.w3.org/2000/svg">
<path fill-rule="evenodd" clip-rule="evenodd" d="M33.323 52.2494C33.7156 52.3974 39.0134 55.9766 39.5824 50.9292C40.0206 47.0199 36.8453 46.7581 34.1993 48.3059C27.9398 51.9649 29.2998 46.6443 29.2998 35.9236C26.1303 35.9577 18.0669 36.7942 16.2745 34.7457C14.8006 33.0386 16.5817 31.1664 17.2532 29.7381C18.7213 26.6141 16.4622 26.4889 15.3014 25.4362C10.4532 26.1076 10.3223 27.7977 12.7635 31.7753C16.0184 37.0674 8.21115 35.6732 6.45281 35.9634C6.26502 39.6281 6.45281 43.7138 6.45281 47.4239C6.45281 49.8936 5.88377 56.9668 7.02185 58.5771C8.54119 60.7111 14.3625 59.812 17.3727 59.812C20.7471 59.812 25.988 60.1192 29.1405 59.7323C29.1405 58.0252 28.947 55.18 29.5331 53.6436C29.9827 52.5055 32.5035 50.5138 33.3116 52.2494" fill="#92213D"/>
<path fill-rule="evenodd" clip-rule="evenodd" d="M16.6841 24.9639C21.9306 27.1945 16.428 32.2761 17.1222 33.6418C18.0668 35.5139 26.6138 34.6774 29.1916 34.649C29.533 30.8933 27.5585 21.6919 31.7694 21.3334C33.7269 21.1684 35.2747 23.7006 37.5508 23.2511C39.4913 22.8641 40.47 19.4669 38.9108 17.811C37.1696 15.9559 35.1836 17.3501 33.4992 18.3801C28.0763 21.7374 29.3566 13.3725 29.442 7.93245C29.442 6.79437 29.9598 1.00152 29.1518 0.13089C29.1518 0.182104 29.0835 0.199175 29.0664 0.27315L28.6453 0.842192C28.4006 1.09826 28.2015 1.24052 27.9283 1.48521C25.9822 3.22648 19.8081 9.77615 18.1977 10.6809L18.1522 7.52274L9.66778 7.4886L9.60518 18.602C8.65224 19.2369 7.77413 19.9776 6.98759 20.8099C6.09165 21.5293 5.24386 22.3068 4.44967 23.1372C2.37266 25.4134 -1.05297 26.9043 0.312732 28.5602C1.38253 29.539 4.60331 29.078 6.3901 29.078L6.447 34.3815C7.83546 34.7571 10.9993 34.9107 11.9895 34.1823C12.8886 32.5776 8.93371 30.1137 10.2539 26.7848C11.0961 24.668 14.9826 23.2738 16.6898 24.9639" fill="#92213D"/>
<path fill-rule="evenodd" clip-rule="evenodd" d="M31.0527 0C30.0968 1.13808 30.5634 7.39754 30.5634 8.79169C30.5634 11.1589 30.3642 15.8137 30.8194 17.7769C32.8338 18.0386 33.9207 16.0185 36.4017 15.6771C38.8828 15.3357 40.4875 17.0371 40.8232 19.0913C41.2215 21.6236 39.8615 23.8998 38.1202 24.4119C33.6248 25.7264 30.404 17.6403 30.4097 27.9741C30.4097 29.556 30.3414 33.4027 30.6203 34.74C33.8809 35.3773 40.3964 33.858 42.8604 35.7187C46.0925 38.177 39.1388 42.5472 43.2587 44.7836C44.9658 45.7168 47.1395 45.1648 47.9078 43.9016C48.9776 42.1205 47.3387 40.0435 46.7014 38.894C43.5887 33.5564 51.4813 35.4228 54.5655 34.9107V29.0553C56.4832 29.0553 59.1179 29.2203 60.6884 28.8163C61.1664 27.6782 61.3542 27.3994 60.4039 26.5401L32.8509 1.97457C32.0874 1.487 31.4669 0.805641 31.0527 0Z" fill="#331C4C"/>
<path fill-rule="evenodd" clip-rule="evenodd" d="M31.4339 53.029C30.182 54.224 30.2958 57.5187 30.4551 59.7494C33.9035 60.0737 38.6493 59.812 42.24 59.812C56.2669 59.812 54.5711 61.3484 54.5711 48.2377C54.5711 44.6072 54.867 39.4858 54.4801 36.0374C52.5055 36.7772 49.3075 35.8269 47.35 36.5325C47.35 38.9395 49.4839 39.702 49.5351 42.5643C49.6318 47.6857 41.449 47.6857 40.658 43.3098C40.1459 40.4304 42.6952 39.3606 42.4619 37.1584C41.6083 35.383 33.2377 36.1398 30.6657 36.1569C30.4551 37.8071 30.3072 47.0597 30.9445 47.8507C31.3713 48.2604 30.4779 48.1068 31.6843 48.1637C32.333 48.1978 33.0898 47.5207 33.6304 47.1849C41.2271 42.4562 43.3041 53.6436 37.7958 54.867C34.9107 55.51 33.8125 52.9607 31.4339 53.029Z" fill="#331C4C"/>
<path d="M94.584 35.968C94.712 35.968 94.84 35.9947 94.968 36.048C95.096 36.0907 95.2187 36.1707 95.336 36.288L97.48 38.544C96.5413 39.7707 95.3627 40.6987 93.944 41.328C92.536 41.9467 90.8667 42.256 88.936 42.256C87.1653 42.256 85.576 41.9573 84.168 41.36C82.7707 40.752 81.5813 39.92 80.6 38.864C79.6293 37.7973 78.8827 36.5387 78.36 35.088C77.8373 33.6267 77.576 32.0427 77.576 30.336C77.576 28.5973 77.8747 27.0027 78.472 25.552C79.0693 24.0907 79.9013 22.832 80.968 21.776C82.0453 20.72 83.3307 19.8987 84.824 19.312C86.3173 18.7253 87.9653 18.432 89.768 18.432C90.6427 18.432 91.464 18.512 92.232 18.672C93.0107 18.8213 93.736 19.0347 94.408 19.312C95.08 19.5787 95.6987 19.904 96.264 20.288C96.8293 20.6613 97.3307 21.0773 97.768 21.536L95.944 23.984C95.8267 24.1333 95.688 24.272 95.528 24.4C95.368 24.5173 95.144 24.576 94.856 24.576C94.664 24.576 94.4827 24.5333 94.312 24.448C94.1413 24.3627 93.96 24.2613 93.768 24.144C93.576 24.016 93.3627 23.8827 93.128 23.744C92.904 23.5947 92.632 23.4613 92.312 23.344C92.0027 23.216 91.6347 23.1093 91.208 23.024C90.792 22.9387 90.3013 22.896 89.736 22.896C88.7547 22.896 87.8587 23.072 87.048 23.424C86.2373 23.7653 85.5387 24.2613 84.952 24.912C84.376 25.552 83.9227 26.3307 83.592 27.248C83.272 28.1653 83.112 29.1947 83.112 30.336C83.112 31.5307 83.272 32.592 83.592 33.52C83.9227 34.448 84.3653 35.232 84.92 35.872C85.4853 36.5013 86.1413 36.9813 86.888 37.312C87.6347 37.6427 88.4347 37.808 89.288 37.808C89.7787 37.808 90.2267 37.7867 90.632 37.744C91.0373 37.6907 91.4107 37.6053 91.752 37.488C92.104 37.3707 92.4347 37.2213 92.744 37.04C93.064 36.848 93.384 36.6133 93.704 36.336C93.832 36.2293 93.9707 36.144 94.12 36.08C94.2693 36.0053 94.424 35.968 94.584 35.968ZM112.943 23.424C112.783 23.68 112.613 23.872 112.431 24C112.261 24.128 112.037 24.192 111.759 24.192C111.514 24.192 111.247 24.1173 110.959 23.968C110.682 23.808 110.362 23.632 109.999 23.44C109.647 23.248 109.242 23.0773 108.783 22.928C108.325 22.768 107.802 22.688 107.215 22.688C106.202 22.688 105.445 22.9067 104.943 23.344C104.453 23.7707 104.207 24.352 104.207 25.088C104.207 25.5573 104.357 25.9467 104.655 26.256C104.954 26.5653 105.343 26.832 105.823 27.056C106.314 27.28 106.869 27.488 107.487 27.68C108.117 27.8613 108.757 28.0693 109.407 28.304C110.058 28.528 110.693 28.7947 111.311 29.104C111.941 29.4133 112.495 29.808 112.975 30.288C113.466 30.768 113.861 31.3547 114.159 32.048C114.458 32.7307 114.607 33.5573 114.607 34.528C114.607 35.6053 114.421 36.6133 114.047 37.552C113.674 38.4907 113.13 39.312 112.415 40.016C111.711 40.7093 110.837 41.2587 109.791 41.664C108.757 42.0587 107.578 42.256 106.255 42.256C105.53 42.256 104.789 42.1813 104.031 42.032C103.285 41.8827 102.559 41.6747 101.855 41.408C101.151 41.1307 100.49 40.8053 99.8713 40.432C99.2526 40.0587 98.7139 39.6427 98.2553 39.184L99.8553 36.656C99.9726 36.464 100.138 36.3093 100.351 36.192C100.565 36.0747 100.794 36.016 101.039 36.016C101.359 36.016 101.679 36.1173 101.999 36.32C102.33 36.5227 102.698 36.7467 103.103 36.992C103.519 37.2373 103.994 37.4613 104.527 37.664C105.061 37.8667 105.69 37.968 106.415 37.968C107.397 37.968 108.159 37.7547 108.703 37.328C109.247 36.8907 109.519 36.2027 109.519 35.264C109.519 34.72 109.37 34.2773 109.071 33.936C108.773 33.5947 108.378 33.312 107.887 33.088C107.407 32.864 106.858 32.6667 106.239 32.496C105.621 32.3253 104.986 32.1387 104.335 31.936C103.685 31.7227 103.05 31.4667 102.431 31.168C101.813 30.8587 101.258 30.4587 100.767 29.968C100.287 29.4667 99.8979 28.848 99.5993 28.112C99.3006 27.3653 99.1513 26.448 99.1513 25.36C99.1513 24.4853 99.3273 23.632 99.6793 22.8C100.031 21.968 100.549 21.2267 101.231 20.576C101.914 19.9253 102.751 19.408 103.743 19.024C104.735 18.6293 105.871 18.432 107.151 18.432C107.866 18.432 108.559 18.4907 109.231 18.608C109.914 18.7147 110.559 18.88 111.167 19.104C111.775 19.3173 112.341 19.5787 112.863 19.888C113.397 20.1867 113.871 20.528 114.287 20.912L112.943 23.424ZM122.703 37.68H131.343V42H117.295V18.688H122.703V37.68ZM160.428 42H154.988V32.144H145.516V42H140.076V18.688H145.516V28.432H154.988V18.688H160.428V42ZM171.656 25.152C172.914 25.152 174.061 25.3493 175.096 25.744C176.13 26.1387 177.016 26.704 177.752 27.44C178.498 28.176 179.074 29.072 179.48 30.128C179.896 31.1733 180.104 32.352 180.104 33.664C180.104 34.9867 179.896 36.1813 179.48 37.248C179.074 38.304 178.498 39.2053 177.752 39.952C177.016 40.688 176.13 41.2587 175.096 41.664C174.061 42.0587 172.914 42.256 171.656 42.256C170.386 42.256 169.229 42.0587 168.184 41.664C167.149 41.2587 166.253 40.688 165.496 39.952C164.749 39.2053 164.168 38.304 163.752 37.248C163.346 36.1813 163.144 34.9867 163.144 33.664C163.144 32.352 163.346 31.1733 163.752 30.128C164.168 29.072 164.749 28.176 165.496 27.44C166.253 26.704 167.149 26.1387 168.184 25.744C169.229 25.3493 170.386 25.152 171.656 25.152ZM171.656 38.576C172.797 38.576 173.634 38.176 174.168 37.376C174.712 36.5653 174.984 35.3387 174.984 33.696C174.984 32.0533 174.712 30.832 174.168 30.032C173.634 29.232 172.797 28.832 171.656 28.832C170.482 28.832 169.624 29.232 169.08 30.032C168.536 30.832 168.264 32.0533 168.264 33.696C168.264 35.3387 168.536 36.5653 169.08 37.376C169.624 38.176 170.482 38.576 171.656 38.576ZM192.97 29.04C192.842 29.2427 192.704 29.3867 192.554 29.472C192.416 29.5573 192.234 29.6 192.01 29.6C191.776 29.6 191.541 29.552 191.306 29.456C191.072 29.3493 190.816 29.2373 190.538 29.12C190.272 29.0027 189.968 28.896 189.626 28.8C189.285 28.6933 188.896 28.64 188.458 28.64C187.829 28.64 187.344 28.7627 187.002 29.008C186.672 29.2427 186.506 29.5733 186.506 30C186.506 30.3093 186.613 30.5653 186.826 30.768C187.05 30.9707 187.344 31.152 187.706 31.312C188.069 31.4613 188.48 31.6053 188.938 31.744C189.397 31.8827 189.866 32.0373 190.346 32.208C190.826 32.3787 191.296 32.5813 191.754 32.816C192.213 33.04 192.624 33.3227 192.986 33.664C193.349 33.9947 193.637 34.4 193.85 34.88C194.074 35.36 194.186 35.936 194.186 36.608C194.186 37.4293 194.037 38.1867 193.738 38.88C193.44 39.5733 192.992 40.1707 192.394 40.672C191.808 41.1733 191.077 41.5627 190.202 41.84C189.338 42.1173 188.341 42.256 187.21 42.256C186.645 42.256 186.08 42.2027 185.514 42.096C184.949 41.9893 184.4 41.8453 183.866 41.664C183.344 41.4827 182.858 41.2693 182.41 41.024C181.962 40.768 181.578 40.496 181.258 40.208L182.41 38.384C182.549 38.1707 182.714 38.0053 182.906 37.888C183.098 37.76 183.349 37.696 183.658 37.696C183.946 37.696 184.202 37.76 184.426 37.888C184.661 38.016 184.912 38.1547 185.178 38.304C185.445 38.4533 185.754 38.592 186.106 38.72C186.469 38.848 186.922 38.912 187.466 38.912C187.85 38.912 188.176 38.8747 188.442 38.8C188.709 38.7147 188.922 38.6027 189.082 38.464C189.242 38.3253 189.36 38.1707 189.434 38C189.509 37.8293 189.546 37.6533 189.546 37.472C189.546 37.1413 189.434 36.8693 189.21 36.656C188.986 36.4427 188.693 36.2613 188.33 36.112C187.968 35.952 187.552 35.808 187.082 35.68C186.624 35.5413 186.154 35.3867 185.674 35.216C185.194 35.0453 184.72 34.8427 184.25 34.608C183.792 34.3627 183.381 34.0587 183.018 33.696C182.656 33.3227 182.362 32.8693 182.138 32.336C181.914 31.8027 181.802 31.1573 181.802 30.4C181.802 29.696 181.936 29.0293 182.202 28.4C182.48 27.76 182.89 27.2 183.434 26.72C183.978 26.24 184.661 25.8613 185.482 25.584C186.304 25.296 187.264 25.152 188.362 25.152C188.96 25.152 189.536 25.2053 190.09 25.312C190.656 25.4187 191.184 25.568 191.674 25.76C192.165 25.952 192.613 26.1813 193.018 26.448C193.424 26.704 193.781 26.9867 194.09 27.296L192.97 29.04ZM196.92 47.264V25.408H199.992C200.301 25.408 200.557 25.4773 200.76 25.616C200.973 25.7547 201.123 25.9627 201.208 26.24L201.576 27.456C201.896 27.104 202.237 26.784 202.6 26.496C202.973 26.208 203.368 25.9627 203.784 25.76C204.211 25.5467 204.664 25.3813 205.144 25.264C205.635 25.1467 206.168 25.088 206.744 25.088C207.608 25.088 208.408 25.28 209.144 25.664C209.88 26.048 210.515 26.6027 211.048 27.328C211.581 28.0533 211.997 28.944 212.296 30C212.605 31.0453 212.76 32.2347 212.76 33.568C212.76 34.816 212.584 35.968 212.232 37.024C211.891 38.08 211.405 38.9973 210.776 39.776C210.157 40.5547 209.411 41.1627 208.536 41.6C207.672 42.0373 206.712 42.256 205.656 42.256C204.792 42.256 204.067 42.1333 203.48 41.888C202.893 41.6427 202.36 41.312 201.88 40.896V47.264H196.92ZM205.016 28.88C204.653 28.88 204.323 28.9173 204.024 28.992C203.736 29.056 203.464 29.152 203.208 29.28C202.963 29.408 202.733 29.5733 202.52 29.776C202.307 29.968 202.093 30.192 201.88 30.448V37.488C202.253 37.904 202.659 38.1973 203.096 38.368C203.533 38.528 203.992 38.608 204.472 38.608C204.931 38.608 205.352 38.5173 205.736 38.336C206.12 38.1547 206.451 37.8667 206.728 37.472C207.016 37.0667 207.24 36.544 207.4 35.904C207.56 35.264 207.64 34.4853 207.64 33.568C207.64 32.6933 207.576 31.9573 207.448 31.36C207.32 30.7627 207.139 30.2827 206.904 29.92C206.68 29.5467 206.408 29.28 206.088 29.12C205.768 28.96 205.411 28.88 205.016 28.88ZM220.54 25.408V42H215.58V25.408H220.54ZM221.116 20.864C221.116 21.2587 221.036 21.632 220.876 21.984C220.716 22.3253 220.497 22.6293 220.22 22.896C219.943 23.152 219.617 23.36 219.244 23.52C218.881 23.6693 218.492 23.744 218.076 23.744C217.671 23.744 217.292 23.6693 216.94 23.52C216.588 23.36 216.273 23.152 215.996 22.896C215.729 22.6293 215.516 22.3253 215.356 21.984C215.207 21.632 215.132 21.2587 215.132 20.864C215.132 20.4587 215.207 20.08 215.356 19.728C215.516 19.376 215.729 19.0667 215.996 18.8C216.273 18.5333 216.588 18.3253 216.94 18.176C217.292 18.0267 217.671 17.952 218.076 17.952C218.492 17.952 218.881 18.0267 219.244 18.176C219.617 18.3253 219.943 18.5333 220.22 18.8C220.497 19.0667 220.716 19.376 220.876 19.728C221.036 20.08 221.116 20.4587 221.116 20.864ZM230.369 42.256C229.58 42.256 228.881 42.144 228.273 41.92C227.676 41.6853 227.169 41.36 226.753 40.944C226.348 40.5173 226.038 40.0053 225.825 39.408C225.612 38.8107 225.505 38.144 225.505 37.408V28.832H224.097C223.841 28.832 223.622 28.752 223.441 28.592C223.26 28.4213 223.169 28.176 223.169 27.856V25.92L225.809 25.408L226.785 21.36C226.913 20.848 227.276 20.592 227.873 20.592H230.465V25.44H234.497V28.832H230.465V37.072C230.465 37.456 230.556 37.776 230.737 38.032C230.929 38.2773 231.201 38.4 231.553 38.4C231.734 38.4 231.884 38.384 232.001 38.352C232.129 38.3093 232.236 38.2667 232.321 38.224C232.417 38.1707 232.502 38.128 232.577 38.096C232.662 38.0533 232.758 38.032 232.865 38.032C233.014 38.032 233.132 38.0693 233.217 38.144C233.313 38.208 233.409 38.3147 233.505 38.464L235.009 40.816C234.369 41.296 233.649 41.6587 232.849 41.904C232.049 42.1387 231.222 42.256 230.369 42.256ZM248.814 42C248.344 42 247.987 41.936 247.742 41.808C247.507 41.68 247.31 41.4133 247.15 41.008L246.798 40.096C246.382 40.448 245.982 40.7573 245.598 41.024C245.214 41.2907 244.814 41.52 244.398 41.712C243.992 41.8933 243.555 42.0267 243.086 42.112C242.627 42.208 242.115 42.256 241.55 42.256C240.792 42.256 240.104 42.16 239.486 41.968C238.867 41.7653 238.339 41.472 237.902 41.088C237.475 40.704 237.144 40.2293 236.91 39.664C236.675 39.088 236.558 38.4267 236.558 37.68C236.558 37.0933 236.707 36.4907 237.006 35.872C237.304 35.2533 237.822 34.6933 238.558 34.192C239.294 33.68 240.286 33.2533 241.534 32.912C242.782 32.5707 244.355 32.3787 246.254 32.336V31.632C246.254 30.6613 246.051 29.9627 245.646 29.536C245.251 29.0987 244.686 28.88 243.95 28.88C243.363 28.88 242.883 28.944 242.51 29.072C242.136 29.2 241.8 29.344 241.502 29.504C241.214 29.664 240.931 29.808 240.654 29.936C240.376 30.064 240.046 30.128 239.661 30.128C239.32 30.128 239.027 30.048 238.782 29.888C238.547 29.7173 238.36 29.5093 238.222 29.264L237.326 27.712C238.328 26.8267 239.438 26.1707 240.654 25.744C241.88 25.3067 243.192 25.088 244.59 25.088C245.592 25.088 246.494 25.2533 247.294 25.584C248.104 25.904 248.787 26.3573 249.342 26.944C249.907 27.52 250.339 28.208 250.638 29.008C250.936 29.808 251.086 30.6827 251.086 31.632V42H248.814ZM243.118 38.976C243.758 38.976 244.318 38.864 244.798 38.64C245.278 38.416 245.763 38.0533 246.254 37.552V35.248C245.262 35.2907 244.446 35.376 243.806 35.504C243.166 35.632 242.659 35.792 242.286 35.984C241.912 36.176 241.651 36.3947 241.502 36.64C241.363 36.8853 241.294 37.152 241.294 37.44C241.294 38.0053 241.448 38.4053 241.758 38.64C242.067 38.864 242.52 38.976 243.118 38.976ZM259.728 18.048V42H254.768V18.048H259.728ZM268.853 25.408V42H263.893V25.408H268.853ZM269.429 20.864C269.429 21.2587 269.349 21.632 269.189 21.984C269.029 22.3253 268.81 22.6293 268.533 22.896C268.255 23.152 267.93 23.36 267.557 23.52C267.194 23.6693 266.805 23.744 266.389 23.744C265.983 23.744 265.605 23.6693 265.253 23.52C264.901 23.36 264.586 23.152 264.309 22.896C264.042 22.6293 263.829 22.3253 263.669 21.984C263.519 21.632 263.445 21.2587 263.445 20.864C263.445 20.4587 263.519 20.08 263.669 19.728C263.829 19.376 264.042 19.0667 264.309 18.8C264.586 18.5333 264.901 18.3253 265.253 18.176C265.605 18.0267 265.983 17.952 266.389 17.952C266.805 17.952 267.194 18.0267 267.557 18.176C267.93 18.3253 268.255 18.5333 268.533 18.8C268.81 19.0667 269.029 19.376 269.189 19.728C269.349 20.08 269.429 20.4587 269.429 20.864ZM278.682 42.256C277.892 42.256 277.194 42.144 276.586 41.92C275.988 41.6853 275.482 41.36 275.066 40.944C274.66 40.5173 274.351 40.0053 274.138 39.408C273.924 38.8107 273.818 38.144 273.818 37.408V28.832H272.41C272.154 28.832 271.935 28.752 271.754 28.592C271.572 28.4213 271.482 28.176 271.482 27.856V25.92L274.122 25.408L275.098 21.36C275.226 20.848 275.588 20.592 276.186 20.592H278.778V25.44H282.81V28.832H278.778V37.072C278.778 37.456 278.868 37.776 279.05 38.032C279.242 38.2773 279.514 38.4 279.866 38.4C280.047 38.4 280.196 38.384 280.314 38.352C280.442 38.3093 280.548 38.2667 280.634 38.224C280.73 38.1707 280.815 38.128 280.89 38.096C280.975 38.0533 281.071 38.032 281.178 38.032C281.327 38.032 281.444 38.0693 281.53 38.144C281.626 38.208 281.722 38.3147 281.818 38.464L283.322 40.816C282.682 41.296 281.962 41.6587 281.162 41.904C280.362 42.1387 279.535 42.256 278.682 42.256ZM292.454 46.304C292.305 46.6347 292.123 46.8747 291.91 47.024C291.697 47.184 291.355 47.264 290.886 47.264H287.174L290.374 40.544L283.75 25.408H288.134C288.518 25.408 288.817 25.4933 289.03 25.664C289.243 25.8347 289.393 26.0373 289.478 26.272L292.198 33.424C292.454 34.0853 292.662 34.7467 292.822 35.408C292.929 35.0667 293.046 34.7307 293.174 34.4C293.302 34.0693 293.425 33.7333 293.542 33.392L296.006 26.272C296.091 26.0267 296.257 25.824 296.502 25.664C296.758 25.4933 297.03 25.408 297.318 25.408H301.318L292.454 46.304Z" fill="#333333"/>
</svg>
