<svg width="62" height="60" viewBox="0 0 62 60" fill="none" xmlns="http://www.w3.org/2000/svg">
<path fill-rule="evenodd" clip-rule="evenodd" d="M33.323 52.2494C33.7156 52.3974 39.0134 55.9766 39.5824 50.9292C40.0206 47.0199 36.8453 46.7581 34.1993 48.3059C27.9398 51.9649 29.2998 46.6443 29.2998 35.9236C26.1303 35.9577 18.0669 36.7942 16.2745 34.7457C14.8006 33.0386 16.5817 31.1664 17.2532 29.7381C18.7213 26.6141 16.4622 26.4889 15.3014 25.4362C10.4532 26.1076 10.3223 27.7977 12.7635 31.7753C16.0184 37.0674 8.21115 35.6732 6.45281 35.9634C6.26502 39.6281 6.45281 43.7138 6.45281 47.4239C6.45281 49.8936 5.88377 56.9668 7.02185 58.5771C8.54119 60.7111 14.3625 59.812 17.3727 59.812C20.7471 59.812 25.988 60.1192 29.1405 59.7323C29.1405 58.0252 28.947 55.18 29.5331 53.6436C29.9827 52.5055 32.5035 50.5138 33.3116 52.2494" fill="#92213D"/>
<path fill-rule="evenodd" clip-rule="evenodd" d="M16.6841 24.9639C21.9306 27.1945 16.428 32.2761 17.1222 33.6418C18.0668 35.5139 26.6138 34.6774 29.1916 34.649C29.533 30.8933 27.5585 21.6919 31.7694 21.3334C33.7269 21.1684 35.2747 23.7006 37.5508 23.2511C39.4913 22.8641 40.47 19.4669 38.9108 17.811C37.1696 15.9559 35.1836 17.3501 33.4992 18.3801C28.0763 21.7374 29.3566 13.3725 29.442 7.93245C29.442 6.79437 29.9598 1.00152 29.1518 0.13089C29.1518 0.182104 29.0835 0.199175 29.0664 0.27315L28.6453 0.842192C28.4006 1.09826 28.2015 1.24052 27.9283 1.48521C25.9822 3.22648 19.8081 9.77615 18.1977 10.6809L18.1522 7.52274L9.66778 7.4886L9.60518 18.602C8.65224 19.2369 7.77413 19.9776 6.98759 20.8099C6.09165 21.5293 5.24386 22.3068 4.44967 23.1372C2.37266 25.4134 -1.05297 26.9043 0.312732 28.5602C1.38253 29.539 4.60331 29.078 6.3901 29.078L6.447 34.3815C7.83546 34.7571 10.9993 34.9107 11.9895 34.1823C12.8886 32.5776 8.93371 30.1137 10.2539 26.7848C11.0961 24.668 14.9826 23.2738 16.6898 24.9639" fill="#92213D"/>
<path fill-rule="evenodd" clip-rule="evenodd" d="M31.0527 0C30.0968 1.13808 30.5634 7.39754 30.5634 8.79169C30.5634 11.1589 30.3642 15.8137 30.8194 17.7769C32.8338 18.0386 33.9207 16.0185 36.4017 15.6771C38.8828 15.3357 40.4875 17.0371 40.8232 19.0913C41.2215 21.6236 39.8615 23.8998 38.1202 24.4119C33.6248 25.7264 30.404 17.6403 30.4097 27.9741C30.4097 29.556 30.3414 33.4027 30.6203 34.74C33.8809 35.3773 40.3964 33.858 42.8604 35.7187C46.0925 38.177 39.1388 42.5472 43.2587 44.7836C44.9658 45.7168 47.1395 45.1648 47.9078 43.9016C48.9776 42.1205 47.3387 40.0435 46.7014 38.894C43.5887 33.5564 51.4813 35.4228 54.5655 34.9107V29.0553C56.4832 29.0553 59.1179 29.2203 60.6884 28.8163C61.1664 27.6782 61.3542 27.3994 60.4039 26.5401L32.8509 1.97457C32.0874 1.487 31.4669 0.805641 31.0527 0Z" fill="#331C4C"/>
<path fill-rule="evenodd" clip-rule="evenodd" d="M31.4339 53.029C30.182 54.224 30.2958 57.5187 30.4551 59.7494C33.9035 60.0737 38.6493 59.812 42.24 59.812C56.2669 59.812 54.5711 61.3484 54.5711 48.2377C54.5711 44.6072 54.867 39.4858 54.4801 36.0374C52.5055 36.7772 49.3075 35.8269 47.35 36.5325C47.35 38.9395 49.4839 39.702 49.5351 42.5643C49.6318 47.6857 41.449 47.6857 40.658 43.3098C40.1459 40.4304 42.6952 39.3606 42.4619 37.1584C41.6083 35.383 33.2377 36.1398 30.6657 36.1569C30.4551 37.8071 30.3072 47.0597 30.9445 47.8507C31.3713 48.2604 30.4779 48.1068 31.6843 48.1637C32.333 48.1978 33.0898 47.5207 33.6304 47.1849C41.2271 42.4562 43.3041 53.6436 37.7958 54.867C34.9107 55.51 33.8125 52.9607 31.4339 53.029Z" fill="#331C4C"/>
</svg>
