<svg width="26" height="24" viewBox="0 0 26 24" fill="none" xmlns="http://www.w3.org/2000/svg">
<g clip-path="url(#clip0_227_17605)">
<path d="M8.01449 7.32652H11.3673C11.4264 7.32653 11.485 7.31481 11.5396 7.29204C11.5943 7.26928 11.6438 7.23592 11.6855 7.1939C11.7272 7.15187 11.7601 7.10201 11.7824 7.04719C11.8047 6.99237 11.8159 6.93368 11.8153 6.87451V3.53746C11.8153 3.41826 11.7683 3.30388 11.6843 3.21922C11.6004 3.13457 11.4865 3.08649 11.3673 3.08545H8.01449C7.89529 3.08649 7.78133 3.13457 7.69741 3.21922C7.61348 3.30388 7.5664 3.41826 7.56641 3.53746V6.8863C7.56847 7.00377 7.61658 7.11573 7.70039 7.19807C7.7842 7.28041 7.897 7.32654 8.01449 7.32652ZM8.46257 3.97376H10.9192V6.42642H8.46257V3.97376Z" fill="white"/>
<path d="M13.8787 7.32652H17.2315C17.2914 7.32758 17.3508 7.31663 17.4063 7.29434C17.4619 7.27204 17.5124 7.23885 17.5549 7.19672C17.5974 7.15459 17.631 7.10437 17.6538 7.04903C17.6765 6.99369 17.688 6.93435 17.6875 6.87451V3.53746C17.6875 3.41826 17.6404 3.30388 17.5565 3.21922C17.4725 3.13457 17.3586 3.08649 17.2394 3.08545H13.8787C13.7595 3.08649 13.6456 3.13457 13.5617 3.21922C13.4777 3.30388 13.4307 3.41826 13.4307 3.53746V6.8863C13.4327 7.00377 13.4808 7.11574 13.5647 7.19807C13.6485 7.28041 13.7613 7.32654 13.8787 7.32652ZM14.3308 3.97376H16.7834V6.42643H14.3308V3.97376Z" fill="white"/>
<path d="M11.3673 13.309C11.4861 13.309 11.6001 13.2618 11.6841 13.1778C11.7681 13.0937 11.8153 12.9797 11.8153 12.8609V9.50814C11.8153 9.3893 11.7681 9.27533 11.6841 9.1913C11.6001 9.10727 11.4861 9.06006 11.3673 9.06006H8.01449C7.89565 9.06006 7.78168 9.10727 7.69765 9.1913C7.61362 9.27533 7.56641 9.3893 7.56641 9.50814V12.8609C7.56641 12.9797 7.61362 13.0937 7.69765 13.1778C7.78168 13.2618 7.89565 13.309 8.01449 13.309H11.3673ZM8.46257 9.96016H10.9192V12.4128H8.46257V9.96016Z" fill="white"/>
<path d="M13.8787 13.309H17.2315C17.291 13.31 17.3501 13.2992 17.4054 13.2772C17.4607 13.2551 17.511 13.2223 17.5535 13.1806C17.5959 13.1389 17.6296 13.0891 17.6526 13.0342C17.6756 12.9793 17.6875 12.9204 17.6875 12.8609V9.50814C17.6875 9.3893 17.6403 9.27533 17.5562 9.1913C17.4722 9.10727 17.3582 9.06006 17.2394 9.06006H13.8787C13.7599 9.06006 13.6459 9.10727 13.5619 9.1913C13.4779 9.27533 13.4307 9.3893 13.4307 9.50814V12.8609C13.4307 12.9798 13.4779 13.0937 13.5619 13.1778C13.6459 13.2618 13.7599 13.309 13.8787 13.309ZM14.3308 9.96016H16.7834V12.4128H14.3308V9.96016Z" fill="white"/>
<path d="M24.7979 5.23158H19.8965V0.448084C19.8965 0.329245 19.8493 0.215273 19.7653 0.131241C19.6812 0.0472087 19.5672 3.23521e-10 19.4484 3.23521e-10L5.80151 3.23521e-10C5.6823 -4.50652e-06 5.56792 0.0470784 5.48327 0.130999C5.39861 0.21492 5.35053 0.328885 5.34949 0.448084V5.23158H0.448084C0.329245 5.23158 0.215273 5.27878 0.131241 5.36282C0.0472087 5.44685 0 5.56082 0 5.67966L0 23.5519C0 23.6708 0.0472087 23.7847 0.131241 23.8688C0.215273 23.9528 0.329245 24 0.448084 24H24.8176C24.9364 24 25.0504 23.9528 25.1344 23.8688C25.2184 23.7847 25.2656 23.6708 25.2656 23.5519V5.67966C25.2657 5.61912 25.2535 5.55921 25.2298 5.50352C25.206 5.44783 25.1712 5.39754 25.1275 5.35566C25.0838 5.31378 25.0321 5.2812 24.9754 5.25987C24.9188 5.23855 24.8584 5.22892 24.7979 5.23158ZM0.896168 9.24075H3.35277V11.6973H0.896168V9.24075ZM0.896168 15.227H3.35277V17.6875H0.896168V15.227ZM5.34949 23.0881H0.896168V18.5798H3.80085C3.91969 18.5798 4.03366 18.5325 4.11769 18.4485C4.20173 18.3645 4.24894 18.2505 4.24894 18.1317V14.7789C4.24894 14.6601 4.20173 14.5461 4.11769 14.4621C4.03366 14.378 3.91969 14.3308 3.80085 14.3308H0.896168V12.5778H3.80085C3.91969 12.5778 4.03366 12.5306 4.11769 12.4466C4.20173 12.3625 4.24894 12.2485 4.24894 12.1297V8.79266C4.24894 8.67382 4.20173 8.55985 4.11769 8.47582C4.03366 8.39179 3.91969 8.34458 3.80085 8.34458H0.896168V6.12774H5.34949V23.0881ZM14.4959 23.0881H10.7501V16.5752H14.4959V23.0881ZM18.9964 5.67966V23.0999H15.396V16.1153C15.395 16.0561 15.3823 15.9977 15.3585 15.9435C15.3348 15.8892 15.3006 15.8402 15.2578 15.7993C15.2151 15.7584 15.1646 15.7263 15.1094 15.705C15.0542 15.6837 14.9953 15.6735 14.9361 15.6751H10.302C10.1845 15.6751 10.0717 15.7212 9.9879 15.8035C9.90409 15.8859 9.85598 15.9978 9.85391 16.1153V23.0999H6.24959V0.896168H18.9964V5.67966ZM24.3695 17.6875H21.8932V15.227H24.3695V17.6875ZM24.3695 11.7013H21.8932V9.24075H24.3695V11.7013ZM24.3695 8.34851H21.4451C21.3263 8.34851 21.2123 8.39572 21.1283 8.47975C21.0443 8.56378 20.9971 8.67775 20.9971 8.79659V12.1454C21.0011 12.2615 21.0501 12.3715 21.1337 12.4522C21.2173 12.5328 21.329 12.5779 21.4451 12.5778H24.3695V14.3151H21.4451C21.3263 14.3151 21.2123 14.3623 21.1283 14.4463C21.0443 14.5304 20.9971 14.6443 20.9971 14.7632V18.116C20.9971 18.2348 21.0443 18.3488 21.1283 18.4328C21.2123 18.5168 21.3263 18.564 21.4451 18.564H24.3695V23.0842H19.8965V6.12774H24.3695V8.34851Z" fill="white"/>
</g>
<defs>
<clipPath id="clip0_227_17605">
<rect width="25.246" height="24" fill="white"/>
</clipPath>
</defs>
</svg>
