<svg width="23" height="24" viewBox="0 0 23 24" fill="none" xmlns="http://www.w3.org/2000/svg">
<g clip-path="url(#clip0_227_17622)">
<path d="M11.3054 11.0569C10.0642 11.0569 8.85088 11.4249 7.81886 12.1145C6.78684 12.8041 5.98248 13.7842 5.50749 14.9309C5.0325 16.0776 4.90823 17.3395 5.15037 18.5568C5.39252 19.7742 5.99021 20.8924 6.86787 21.77C7.74554 22.6477 8.86374 23.2454 10.0811 23.4875C11.2984 23.7297 12.5603 23.6054 13.707 23.1304C14.8537 22.6554 15.8338 21.8511 16.5234 20.819C17.213 19.787 17.581 18.5737 17.581 17.3325C17.5787 15.6688 16.9168 14.0739 15.7404 12.8975C14.564 11.7211 12.9691 11.0592 11.3054 11.0569ZM11.3054 22.8712C10.21 22.8712 9.13911 22.5464 8.22828 21.9378C7.31744 21.3292 6.60754 20.4641 6.18833 19.4521C5.76912 18.44 5.65943 17.3264 5.87314 16.252C6.08686 15.1776 6.61436 14.1907 7.38896 13.4161C8.16356 12.6415 9.15046 12.114 10.2249 11.9002C11.2993 11.6865 12.4129 11.7962 13.425 12.2154C14.437 12.6346 15.3021 13.3445 15.9107 14.2554C16.5193 15.1662 16.8441 16.2371 16.8441 17.3325C16.8395 18.8 16.2544 20.2061 15.2167 21.2438C14.179 22.2815 12.7729 22.8666 11.3054 22.8712Z" fill="white"/>
<path d="M22.2249 8.71174C22.1681 8.6786 22.1035 8.66113 22.0378 8.66113C21.972 8.66113 21.9074 8.6786 21.8506 8.71174C21.7395 8.78485 19.131 10.5161 19.131 16.2945C19.1298 16.3433 19.1384 16.3917 19.1562 16.4371C19.1741 16.4825 19.2008 16.5238 19.2349 16.5587C19.2689 16.5936 19.3096 16.6213 19.3546 16.6402C19.3995 16.6591 19.4478 16.6689 19.4965 16.6688H21.6781V23.6317C21.6781 23.6801 21.6876 23.728 21.7061 23.7727C21.7246 23.8174 21.7518 23.858 21.786 23.8922C21.8202 23.9264 21.8608 23.9536 21.9055 23.9721C21.9502 23.9906 21.9981 24.0002 22.0465 24.0002C22.0949 24.0002 22.1428 23.9906 22.1875 23.9721C22.2322 23.9536 22.2729 23.9264 22.3071 23.8922C22.3413 23.858 22.3684 23.8174 22.3869 23.7727C22.4055 23.728 22.415 23.6801 22.415 23.6317V9.03341C22.4155 8.96759 22.3981 8.90288 22.3646 8.84621C22.3311 8.78954 22.2828 8.74306 22.2249 8.71174ZM19.8854 15.9407C19.9381 13.3556 20.558 11.718 21.0786 10.788C21.2542 10.4691 21.4608 10.1684 21.6956 9.89024V15.9407H19.8854Z" fill="white"/>
<path d="M3.89814 8.66772C3.80119 8.66772 3.70821 8.70623 3.63966 8.77478C3.57111 8.84334 3.53259 8.93631 3.53259 9.03326V13.6449C3.53259 13.6775 3.51965 13.7087 3.49662 13.7318C3.47359 13.7548 3.44235 13.7678 3.40977 13.7678H2.5003V9.03326C2.49211 8.94158 2.4499 8.85629 2.38198 8.79416C2.31406 8.73204 2.22535 8.69759 2.1333 8.69759C2.04125 8.69759 1.95254 8.73204 1.88462 8.79416C1.8167 8.85629 1.77449 8.94158 1.7663 9.03326V13.7678H0.859754C0.827179 13.7678 0.795939 13.7548 0.772906 13.7318C0.749872 13.7087 0.736932 13.6775 0.736932 13.6449V9.03326C0.736932 8.93554 0.698111 8.84182 0.629011 8.77272C0.55991 8.70362 0.466189 8.66479 0.368466 8.66479C0.270743 8.66479 0.177022 8.70362 0.107921 8.77272C0.0388204 8.84182 0 8.93554 0 9.03326L0 13.6449C0.000773861 13.8724 0.0916963 14.0904 0.252848 14.251C0.413999 14.4116 0.632239 14.5018 0.859754 14.5018H1.7546V23.6315C1.75005 23.6825 1.75615 23.7338 1.77253 23.7823C1.7889 23.8307 1.81519 23.8753 1.84971 23.913C1.88423 23.9508 1.92624 23.9809 1.97305 24.0015C2.01986 24.0221 2.07045 24.0328 2.1216 24.0328C2.17276 24.0328 2.22335 24.0221 2.27016 24.0015C2.31697 23.9809 2.35897 23.9508 2.3935 23.913C2.42802 23.8753 2.4543 23.8307 2.47068 23.7823C2.48705 23.7338 2.49316 23.6825 2.48861 23.6315V14.5018H3.39807C3.5106 14.5018 3.62201 14.4796 3.72597 14.4365C3.82992 14.3935 3.92438 14.3304 4.00394 14.2508C4.08351 14.1712 4.14662 14.0768 4.18968 13.9728C4.23274 13.8689 4.2549 13.7575 4.2549 13.6449V9.03326C4.25493 8.93781 4.21763 8.84614 4.15096 8.77784C4.08429 8.70953 3.99355 8.67001 3.89814 8.66772Z" fill="white"/>
<path d="M20.2628 6.77285C20.267 5.77522 20.0281 4.79157 19.5668 3.907C19.5391 3.85393 19.4969 3.80981 19.4451 3.77978C19.3934 3.74975 19.3341 3.73505 19.2743 3.73739H13.6947C13.8957 2.60911 13.9936 1.46488 13.9871 0.318848C13.9876 0.275867 13.9792 0.233249 13.9626 0.193602C13.946 0.153955 13.9215 0.118113 13.8906 0.0882728C13.8596 0.0584321 13.8229 0.03522 13.7827 0.020058C13.7425 0.00489597 13.6996 -0.00189692 13.6567 9.53044e-05H2.46819C2.42646 9.35159e-05 2.38515 0.00835853 2.34664 0.0244129C2.30813 0.0404673 2.27319 0.0639929 2.24382 0.0936307C2.21445 0.123268 2.19125 0.158431 2.17555 0.197087C2.15985 0.235743 2.15197 0.277127 2.15236 0.318848C2.15236 3.50929 2.7109 5.76396 3.86017 7.19395C4.78133 8.34029 6.05342 8.93101 7.74661 8.99534V16.2389H5.50949C5.4306 16.2465 5.35736 16.2832 5.30406 16.3419C5.25076 16.4005 5.22123 16.4769 5.22123 16.5562C5.22123 16.6355 5.25076 16.7119 5.30406 16.7705C5.35736 16.8292 5.4306 16.8659 5.50949 16.8735H10.6154C10.6943 16.8659 10.7675 16.8292 10.8208 16.7705C10.8741 16.7119 10.9036 16.6355 10.9036 16.5562C10.9036 16.4769 10.8741 16.4005 10.8208 16.3419C10.7675 16.2832 10.6943 16.2465 10.6154 16.2389H8.38119V8.99534C9.12687 8.98025 9.86264 8.82138 10.5481 8.52745C11.171 10.6593 12.8876 12.2326 14.9639 12.3788V16.2389H12.7267C12.6479 16.2465 12.5746 16.2832 12.5213 16.3419C12.468 16.4005 12.4385 16.4769 12.4385 16.5562C12.4385 16.6355 12.468 16.7119 12.5213 16.7705C12.5746 16.8292 12.6479 16.8659 12.7267 16.8735H17.8385C17.8827 16.8777 17.9273 16.8727 17.9695 16.8587C18.0117 16.8447 18.0504 16.822 18.0833 16.7921C18.1162 16.7623 18.1425 16.7258 18.1605 16.6852C18.1784 16.6446 18.1877 16.6006 18.1877 16.5562C18.1877 16.5118 18.1784 16.4678 18.1605 16.4272C18.1425 16.3866 18.1162 16.3502 18.0833 16.3203C18.0504 16.2904 18.0117 16.2677 17.9695 16.2537C17.9273 16.2397 17.8827 16.2347 17.8385 16.2389H15.5984V12.3788C18.1982 12.1946 20.2628 9.74982 20.2628 6.77285ZM19.6165 6.39854H10.9458C10.9917 5.70085 11.1693 5.01817 11.4693 4.38659H19.0901C19.3923 5.01752 19.571 5.70045 19.6165 6.39854ZM13.3379 0.634676C13.3379 1.31897 13.2911 1.96232 13.2268 2.55596H2.90099C2.83665 1.9711 2.79571 1.33652 2.78694 0.634676H13.3379ZM8.07413 8.36661C6.15577 8.36661 3.68763 7.76712 2.99457 3.19054H13.1595C13.1303 3.3777 13.0981 3.55901 13.063 3.73739H11.2763C11.2163 3.73432 11.1568 3.74872 11.1049 3.77882C11.053 3.80893 11.0109 3.85346 10.9838 3.907C10.3515 5.1348 10.1457 6.53814 10.399 7.89579C9.66605 8.22833 8.86695 8.38936 8.06243 8.36661H8.07413ZM10.9488 7.03312H19.6223C19.5053 9.66502 17.6016 11.7559 15.2797 11.7559C12.9578 11.7559 11.057 9.65039 10.9371 7.03312H10.9488Z" fill="white"/>
</g>
<defs>
<clipPath id="clip0_227_17622">
<rect width="22.415" height="24" fill="white"/>
</clipPath>
</defs>
</svg>
