<svg width="24" height="24" viewBox="0 0 24 24" fill="none" xmlns="http://www.w3.org/2000/svg">
<g clip-path="url(#clip0_229_17916)">
<path d="M12.0002 15.0801C17.0002 15.0801 20.8802 16.7801 20.8802 18.2501C20.8802 19.7201 17.0002 21.4201 12.0002 21.4201C7.00017 21.4201 3.13017 19.7201 3.13017 18.2501C3.13017 16.7801 7.00017 15.0801 12.0002 15.0801ZM12.0002 14.3701C6.83017 14.3701 2.42017 16.1401 2.42017 18.2501C2.42017 20.3601 6.85017 22.1301 12.0002 22.1301C17.1502 22.1301 21.5802 20.3601 21.5802 18.2501C21.5802 16.1401 17.2002 14.3701 12.0002 14.3701Z" fill="white"/>
<path d="M10.0001 16.7701C7.32011 16.7701 5.45011 17.6801 5.45011 18.5401C5.44567 18.6139 5.41502 18.6837 5.36368 18.7368C5.31234 18.79 5.24369 18.8231 5.17011 18.8301C5.08697 18.8225 5.01011 18.7826 4.95593 18.7191C4.90175 18.6556 4.87454 18.5734 4.88011 18.4901C4.88011 17.8201 5.45011 17.2001 6.46011 16.7701C7.58996 16.3393 8.79098 16.1255 10.0001 16.1401C10.0755 16.1448 10.1465 16.1769 10.1999 16.2303C10.2533 16.2837 10.2854 16.3547 10.2901 16.4301C10.2957 16.5134 10.2685 16.5956 10.2143 16.6591C10.1601 16.7226 10.0832 16.7625 10.0001 16.7701Z" fill="white"/>
<path d="M12 9.09004C16 9.09004 18.05 10.48 18.05 11.09C18.05 11.7 16 13 12 13C8 13 6 11.62 6 11C6 10.38 8.06 9.00004 12 9.00004M12 8.29004C8 8.29004 5.25 9.68004 5.25 10.98C5.25 12.28 8 13.75 12 13.75C16 13.75 18.76 12.36 18.76 11.07C18.76 9.78004 16.05 8.38004 12 8.38004V8.29004Z" fill="white"/>
<path d="M10.1101 9.92004C10.1519 9.91216 10.1951 9.91361 10.2363 9.92429C10.2776 9.93497 10.316 9.95461 10.3488 9.98182C10.3816 10.009 10.408 10.0431 10.4262 10.0817C10.4443 10.1203 10.4537 10.1624 10.4537 10.205C10.4537 10.2477 10.4443 10.2898 10.4262 10.3283C10.408 10.3669 10.3816 10.401 10.3488 10.4283C10.316 10.4555 10.2776 10.4751 10.2363 10.4858C10.1951 10.4965 10.1519 10.4979 10.1101 10.49C8.96006 10.49 8.38006 10.87 8.38006 11.07C8.36756 11.1365 8.33223 11.1965 8.28019 11.2396C8.22815 11.2828 8.16267 11.3064 8.09506 11.3064C8.02745 11.3064 7.96196 11.2828 7.90992 11.2396C7.85788 11.1965 7.82256 11.1365 7.81006 11.07C7.81006 10.3 9.00006 9.92004 10.1101 9.92004Z" fill="white"/>
<path d="M12.0001 4.25007C13.2245 4.22615 14.4424 4.4331 15.5901 4.86007C16.4701 5.26007 16.6601 5.57007 16.6601 5.65007C16.6601 5.73007 16.4101 6.12007 15.6601 6.43007C14.492 6.8724 13.2488 7.08299 12.0001 7.05007C10.7724 7.07598 9.55083 6.869 8.40014 6.44007C7.60014 6.10007 7.40014 5.74007 7.40014 5.65007C7.40014 5.56007 7.65014 5.19007 8.40014 4.87007C9.55067 4.4396 10.7719 4.22928 12.0001 4.25007ZM12.0001 3.55007C10.6757 3.52132 9.35822 3.74883 8.12014 4.22007C7.12014 4.60007 6.64014 5.13007 6.64014 5.65007C6.64014 6.17007 7.21014 6.71007 8.12014 7.09007C9.35959 7.55631 10.6761 7.78365 12.0001 7.76007C13.3243 7.78559 14.6412 7.55819 15.8801 7.09007C16.8801 6.71007 17.3701 6.18007 17.3701 5.65007C17.3701 5.12007 16.8401 4.65007 15.8801 4.22007C14.6425 3.74711 13.3247 3.51955 12.0001 3.55007Z" fill="white"/>
<path d="M12.0001 0.71C13.1172 0.611144 14.2355 0.885456 15.1801 1.49C14.2317 2.08484 13.1156 2.35509 12.0001 2.26C10.8879 2.35362 9.77541 2.08339 8.8301 1.49C9.77127 0.886212 10.8862 0.611871 12.0001 0.71ZM12.0001 0C9.7201 0 8.1001 0.77 8.1001 1.49C8.1001 2.21 9.7201 3 12.0001 3C14.2801 3 16.0001 2.2 16.0001 1.49C16.0001 0.78 14.3201 0 12.0001 0Z" fill="white"/>
<path d="M22.8002 8.47001C22.8971 8.47001 22.9918 8.49875 23.0724 8.55259C23.153 8.60643 23.2158 8.68296 23.2529 8.77249C23.29 8.86203 23.2997 8.96055 23.2807 9.0556C23.2618 9.15065 23.2152 9.23796 23.1466 9.30649C23.0781 9.37502 22.9908 9.42169 22.8958 9.44059C22.8007 9.4595 22.7022 9.4498 22.6126 9.41271C22.5231 9.37562 22.4466 9.31282 22.3927 9.23224C22.3389 9.15166 22.3102 9.05692 22.3102 8.96001C22.3088 8.89529 22.3205 8.83096 22.3447 8.77089C22.3688 8.71083 22.4049 8.65627 22.4506 8.61049C22.4964 8.56472 22.551 8.52867 22.611 8.50453C22.6711 8.48039 22.7354 8.46865 22.8002 8.47001ZM22.8002 7.76001C22.5646 7.76014 22.3342 7.82962 22.1378 7.9598C21.9414 8.08997 21.7877 8.27507 21.6958 8.49203C21.604 8.70898 21.578 8.94817 21.6211 9.1798C21.6643 9.41142 21.7747 9.62521 21.9385 9.79451C22.1024 9.96382 22.3124 10.0812 22.5425 10.1319C22.7726 10.1826 23.0125 10.1645 23.2323 10.0797C23.4522 9.99502 23.6422 9.84745 23.7788 9.65545C23.9153 9.46344 23.9923 9.23548 24.0002 9.00001C24.0015 8.84205 23.9714 8.68541 23.9115 8.53922C23.8517 8.39302 23.7634 8.26021 23.6517 8.14851C23.54 8.03681 23.4071 7.94847 23.261 7.88864C23.1148 7.82881 22.9581 7.79868 22.8002 7.80001V7.76001Z" fill="white"/>
<path d="M1.5301 2.39994C1.28876 2.39994 1.05729 2.49582 0.886636 2.66648C0.715978 2.83713 0.620103 3.0686 0.620103 3.30994C0.617369 3.43019 0.639038 3.54975 0.683802 3.66139C0.728566 3.77304 0.795496 3.87445 0.880548 3.9595C0.9656 4.04455 1.06701 4.11148 1.17865 4.15624C1.29029 4.20101 1.40985 4.22268 1.5301 4.21994C1.64961 4.21994 1.76794 4.19641 1.87834 4.15067C1.98875 4.10494 2.08907 4.03791 2.17357 3.95341C2.25807 3.86891 2.3251 3.76859 2.37083 3.65819C2.41657 3.54778 2.4401 3.42945 2.4401 3.30994C2.44429 3.18931 2.42362 3.06911 2.37937 2.95681C2.33512 2.84451 2.26824 2.74251 2.18289 2.65716C2.09754 2.57181 1.99554 2.50493 1.88324 2.46068C1.77094 2.41643 1.65073 2.39576 1.5301 2.39994Z" fill="white"/>
<path d="M22.5201 21.8401C22.2788 21.8401 22.0473 21.936 21.8766 22.1066C21.706 22.2773 21.6101 22.5087 21.6101 22.7501C21.6101 22.9914 21.706 23.2229 21.8766 23.3936C22.0473 23.5642 22.2788 23.6601 22.5201 23.6601C22.6407 23.6643 22.7609 23.6436 22.8732 23.5994C22.9855 23.5551 23.0875 23.4882 23.1729 23.4029C23.2582 23.3175 23.3251 23.2155 23.3694 23.1032C23.4136 22.9909 23.4343 22.8707 23.4301 22.7501C23.4098 22.5156 23.3074 22.2957 23.1409 22.1293C22.9745 21.9628 22.7546 21.8604 22.5201 21.8401Z" fill="white"/>
<path d="M0.620121 22.13C0.467971 22.1493 0.328081 22.2234 0.226681 22.3385C0.125281 22.4535 0.0693359 22.6016 0.0693359 22.755C0.0693359 22.9084 0.125281 23.0565 0.226681 23.1715C0.328081 23.2866 0.467971 23.3607 0.620121 23.38C0.708832 23.3912 0.798921 23.3835 0.884397 23.3572C0.969873 23.3309 1.04878 23.2868 1.11587 23.2277C1.18295 23.1685 1.23669 23.0958 1.27349 23.0143C1.3103 22.9328 1.32934 22.8444 1.32934 22.755C1.32934 22.6656 1.3103 22.5772 1.27349 22.4957C1.23669 22.4142 1.18295 22.3415 1.11587 22.2823C1.04878 22.2232 0.969873 22.1791 0.884397 22.1528C0.798921 22.1265 0.708832 22.1188 0.620121 22.13Z" fill="white"/>
</g>
<defs>
<clipPath id="clip0_229_17916">
<rect width="24" height="23.66" fill="white"/>
</clipPath>
</defs>
</svg>
